<svg width="131" height="38" viewBox="0 0 131 38" xmlns="http://www.w3.org/2000/svg"><title>taimio</title><g fill="none" fill-rule="evenodd"><path d="M57.282 27.839c.775 0 1.395-.128 1.963-.358.336-.128.568-.408.568-.766a.855.855 0 0 0-.852-.842c-.155 0-.517.178-1.214.178-1.343 0-2.248-.587-2.248-2.196v-7.71h3.462c.49 0 .904-.383.904-.868 0-.46-.413-.868-.904-.868h-3.462v-3.115c0-.537-.464-.996-1.007-.996a.98.98 0 0 0-.982.996v3.115h-1.084a.883.883 0 0 0-.879.868c0 .46.414.868.879.868h1.084v7.966c0 2.68 1.628 3.728 3.772 3.728zm9.945.05c2.35 0 3.9-1.072 4.83-2.272v1.2c0 .51.387.92.956.92.542 0 .956-.41.956-.97V19.54c0-1.686-.465-2.962-1.37-3.856-.981-.97-2.428-1.455-4.313-1.455-1.705 0-3.048.332-4.366.893a.9.9 0 0 0-.542.817c0 .46.413.843.878.843.103 0 .233-.026.362-.077a8.42 8.42 0 0 1 3.461-.74c2.506 0 3.978 1.226 3.978 3.6v.46a14.334 14.334 0 0 0-4.107-.562c-3.384 0-5.709 1.48-5.709 4.264v.05c0 2.707 2.506 4.112 4.986 4.112zm.387-1.557c-1.808 0-3.358-.97-3.358-2.63v-.05c0-1.66 1.395-2.733 3.9-2.733 1.628 0 2.945.281 3.927.562v1.277c0 2.093-2.015 3.574-4.469 3.574zm10.59-15.728c0 .613.517 1.047 1.163 1.047.672 0 1.188-.434 1.188-1.047v-.332c0-.638-.516-1.047-1.188-1.047-.646 0-1.162.409-1.162 1.047v.332zm.182 16.137c0 .561.439.995 1.007.995.568 0 .982-.434.982-.995V15.277a.987.987 0 0 0-1.008-.996.997.997 0 0 0-.981.996V26.74zm6.612 0c0 .561.44.995 1.008.995.568 0 .981-.434.981-.995v-6.664c0-2.426 1.602-4.162 3.72-4.162 2.118 0 3.435 1.455 3.435 3.932v6.894c0 .561.44.995.982.995a.987.987 0 0 0 1.007-.995V20c0-2.605 1.654-4.086 3.668-4.086 2.17 0 3.462 1.43 3.462 3.983v6.843c0 .561.439.995 1.007.995a.981.981 0 0 0 .982-.995v-7.303c0-3.268-1.886-5.31-4.96-5.31-2.325 0-3.745 1.174-4.701 2.63-.723-1.481-2.118-2.63-4.288-2.63-2.247 0-3.435 1.2-4.314 2.502v-1.353a.987.987 0 0 0-1.007-.996.997.997 0 0 0-.982.996V26.74zm24.565-16.137c0 .613.517 1.047 1.163 1.047.671 0 1.188-.434 1.188-1.047v-.332c0-.638-.517-1.047-1.188-1.047-.646 0-1.163.409-1.163 1.047v.332zm.181 16.137c0 .561.44.995 1.008.995.568 0 .981-.434.981-.995V15.277a.987.987 0 0 0-1.007-.996.997.997 0 0 0-.982.996V26.74zm12.709 1.174c4.03 0 7-3.166 7-6.894v-.05c0-3.728-2.945-6.843-6.948-6.843-4.03 0-6.975 3.166-6.975 6.893v.051c0 3.728 2.92 6.843 6.923 6.843zm.052-1.762c-2.816 0-4.934-2.298-4.934-5.132v-.05c0-2.784 1.989-5.107 4.882-5.107 2.816 0 4.96 2.323 4.96 5.157v.051c0 2.783-2.015 5.081-4.908 5.081z" fill="#FFF"/><g transform="translate(1 1)"><circle fill="#2ECC71" cx="18" cy="18" r="18"/><path d="M15.913 29.066c-.443 1.42.046 2.468-.037 3.597l.348 3.314c1.173.108-2.441-.396-2.441-.396l-.033-2.03s.118-1.48.124-2.673c.006-.978-.063-1.587-.332-2.51-.595-2.05-3.439-3.007-5.123-5.922-1.685-2.916-.847-7.475-.847-7.475s4.455 1.89 5.855 5.019c.827 1.847 1.222 5.575 1.407 8.32a4.6 4.6 0 0 0-.006-.707c-.194-1.847 1.423-6.274 1.94-7.461.52-1.187 2.241-3.45 5.635-5.246 3.394-1.796 8.85-1.451 8.85-1.451-2.98 6.315-3.468 7.499-6.207 9.991-1.875 1.706-4.97 2.627-7 3.592.375-1.051.836-2.22 1.243-2.893 1.003-1.662 2.327-3.178 2.327-3.178s-1.626 1.12-2.866 2.553c-1.115 1.29-2.868 5.552-2.868 5.552l.03.004z" fill="#FFF"/></g></g></svg>